<svg xmlns="http://www.w3.org/2000/svg" version="1.1" xmlns:xlink="http://www.w3.org/1999/xlink" width="512" height="512" x="0" y="0" viewBox="0 0 512 512" style="enable-background:new 0 0 512 512" xml:space="preserve" class=""><g><path fill-rule="evenodd" d="m328.615 147.055 11.2-9.129L208.543 35.015 69.232 116.489l8.555 2.292L115.62 97.4a4.555 4.555 0 0 1 3.29-.587l24.969 5.024 57.214-34.455a4.567 4.567 0 0 1 5.368.177l122.154 79.5zm54.325 61.973 77.76 30.293v-29.569l-77.76-42.761zm77.76 40.129v10.181l-77.76-28.991v-11.482zm-86.95-30.786-30.427 9.384v10.52l30.427-8.268zm-30.427-.211 30.427-9.385V166.4l-30.427 14.034zM241.2 134.522V172.2l-11.973-6.35v-37.68l11.973 6.35zm-14.144-17.886 20.879 11.073a4.585 4.585 0 0 1 2.45 4.059h.01v48.064a4.593 4.593 0 0 1-7.024 3.905l-20.879-11.072a4.588 4.588 0 0 1-2.451-4.059h-.01v-48.064a4.6 4.6 0 0 1 7.025-3.906zm14.144 94.543-11.973-6.35v37.68l11.973 6.349zm-14.144-17.886 20.879 11.073a4.582 4.582 0 0 1 2.45 4.059h.01v48.064a4.593 4.593 0 0 1-7.024 3.905l-20.879-11.072a4.588 4.588 0 0 1-2.451-4.059h-.01V197.2a4.6 4.6 0 0 1 7.025-3.906zm14.144 90.716-11.973-3.857v38.433l11.973 3.857zm-14.811-14.4 20.809 6.7a4.585 4.585 0 0 1 3.184 4.364h.013v48.064a4.589 4.589 0 0 1-6.358 4.249l-20.809-6.7a4.587 4.587 0 0 1-3.183-4.365h-.014v-48.066a4.6 4.6 0 0 1 6.358-4.248zm172.273-10.555a4.587 4.587 0 0 0-5.733 4.437h-.014v32.132a4.6 4.6 0 0 0 3.8 4.529l13.867 3.639a4.586 4.586 0 0 0 5.733-4.436h.014v-32.134a4.6 4.6 0 0 0-3.8-4.529l-13.867-3.64zm8.473 11.7v22.657l-5.025-1.319v-22.659l5.025 1.319zm-8.473 60.555 13.867 3.639a4.6 4.6 0 0 1 3.8 4.529v32.132h-.014a4.586 4.586 0 0 1-5.733 4.436l-13.865-3.645a4.6 4.6 0 0 1-3.8-4.529v-32.128h.014a4.585 4.585 0 0 1 5.733-4.436zm8.473 11.7-5.025-1.319v22.657l5.025 1.319v-22.66zm-284.037 4.8-.5-240.915 17.536 3.528v243.5l-17.034-6.113zm-39.631-1.345-.492-220.1 30.473-17.226.488 237.33zm100 11.892v96.308h15.585v-99.021zm-5.639-8.339-28.5 4.96V109.268l49.72-29.942v267l-20.731 3.609a4.7 4.7 0 0 0-.493.086zm30.419 104.925 30.264 1.814V356.727l-30.264-4.762zm64.806-22.381v-70.4l-25.347-3.989v76.149l25.347-1.762zm4.907-78.9-69.713-10.97V79.657l125.871 81.919V362.5l-55.341-8.708a4.578 4.578 0 0 0-.817-.129zm23.168 76.947v-64.027l-18.879-2.971v68.312l18.879-1.312zm9.2-62.582v61.943l23.794-1.654v-56.542l-23.794-3.745zm-62.618 89.083 86.412.934v-20.524l-86.412 6.006zm136.163-23.463a16.1 16.1 0 0 0-5.327 8.919h-.011a4.584 4.584 0 0 1-4.048 3.594c-12.382 1.184-18.251 17.54-9.1 27.157a14.427 14.427 0 0 0 10.456 4.583H471.9c13.178 0 20.007-17.177 10.457-27.209a14.429 14.429 0 0 0-10.457-4.583h-2.3v-.017a4.58 4.58 0 0 1-4.472-3.593c-1.544-6.986-7.784-12.7-15.232-12.226a4.587 4.587 0 0 1-4.823-3.641c-1.426-6.807-8.292-10.762-14.46-8.115v-.007a4.581 4.581 0 0 1-5.654-1.753c-8.2-12.873-27.281-6.749-27.281 8.913a4.6 4.6 0 0 1-4.6 4.6 14.284 14.284 0 0 0-9.206 3.382zm-.933-10.252a23.236 23.236 0 0 1 5.881-1.934c3.355-20.6 28.289-28.181 41.726-12.508a19.749 19.749 0 0 1 22.416 12.236 23.161 23.161 0 0 1 7.732 2.195V269.115l-77.755-28.991zm-12.513 14.178a24.717 24.717 0 0 0-17.811 17.746l-9.3 1.794V247.8l30.427-8.268v191.65a25.359 25.359 0 0 0-3.318 6.39zM48.136 420.878a16.045 16.045 0 0 0-5.327 8.92h-.011a4.585 4.585 0 0 1-4.048 3.594c-12.382 1.184-18.251 17.54-9.095 27.156a14.424 14.424 0 0 0 10.456 4.584h96.048c15.211 0 21.216-22.285 6.285-30.3-2.852-1.532-5.467-1.489-8.579-1.489v-.017a4.58 4.58 0 0 1-4.472-3.593c-1.594-7.215-7.987-12.691-15.232-12.227a4.586 4.586 0 0 1-4.823-3.64c-1.426-6.807-8.292-10.763-14.46-8.116v-.007a4.578 4.578 0 0 1-5.654-1.753c-8.2-12.873-27.281-6.748-27.281 8.914a4.6 4.6 0 0 1-4.6 4.6 14.288 14.288 0 0 0-9.206 3.381zm101.2 7.377V364.3l24.939-4.341v93.851l-14.1-2.432a25.466 25.466 0 0 0-10.841-23.123zm-26.109-18.391-.108-52.318 17.021 6.107v60.835a23.072 23.072 0 0 0-2.874-.319 24.71 24.71 0 0 0-14.039-14.305zM83.563 388.8l-.074-33.137h30.467l.1 47.406a19.393 19.393 0 0 0-19.243-6.881 23.94 23.94 0 0 0-11.25-7.388zm-48.873 36a24.448 24.448 0 0 1 18.394-16.111c1.766-10.845 10.341-19.6 21.318-20.757l-.584-260.711-17.568-4.703a4.592 4.592 0 0 1-.851-8.551l151.2-88.43a4.583 4.583 0 0 1 5.208.4l138.17 108.311a4.619 4.619 0 0 1 .071 7.165l-13.366 10.893 4.534 2.951a4.576 4.576 0 0 1 2.084 3.843h.015v11.226c3.849-1.775 32.722-15.29 34.1-15.6a4.6 4.6 0 0 1 3.138.472L467.5 203.02a4.589 4.589 0 0 1 2.381 4.023h.007v224.1a25.356 25.356 0 0 1 3.112 5.794c20.528.978 30.84 27.1 15.994 42.7a23.57 23.57 0 0 1-17.1 7.456h-96.046c-12.512 0-22.621-9.977-23.956-22.286-2.214.428-12.042 2.509-13.53 2.443l-95.081-1.027-2.323-.128-37.3-2.234c-3.131.016-24.474.153-25.819-.118l-20.052-3.459a24.123 24.123 0 0 1-21.624 14.042H40.111c-20.592 0-31.97-25.637-17.874-41.872A23.986 23.986 0 0 1 34.69 424.8z" fill="#ab8a62" opacity="1" data-original="#000000" class=""></path></g></svg>