<svg xmlns="http://www.w3.org/2000/svg" version="1.1" xmlns:xlink="http://www.w3.org/1999/xlink" width="512" height="512" x="0" y="0" viewBox="0 0 64 64" style="enable-background:new 0 0 512 512" xml:space="preserve" class=""><g><path d="M60 56.17V34a3 3 0 0 0-6 0v2h-4V8h1a1 1 0 0 0 1-1V3a1 1 0 0 0-1-1H13a1 1 0 0 0-1 1v4a1 1 0 0 0 1 1h1v28h-4v-2a3 3 0 0 0-6 0v22.17A3 3 0 0 0 5 62h54a3 3 0 0 0 1-5.83ZM42 56V38h5v18Zm-7 0V38h5v18Zm9-20h-9V12h9Zm5 2h5v18h-5ZM14 4h36v2H14Zm2 4h32v28h-2V11a1 1 0 0 0-1-1H34a1 1 0 0 0-1 1v20.184a2.806 2.806 0 0 0-2 0V11a1 1 0 0 0-1-1H19a1 1 0 0 0-1 1v25h-2Zm1 48V38h5v18Zm12-20h-9V12h9Zm-5 2h5v18h-5Zm-9 0v18h-5V38Zm44 22H5a1 1 0 0 1 0-2 1 1 0 0 0 1-1V34a1 1 0 0 1 2 0v23a1 1 0 0 0 1 1h21a1 1 0 0 0 1-1V34a1 1 0 0 1 2 0v23a1 1 0 0 0 1 1h21a1 1 0 0 0 1-1V34a1 1 0 0 1 2 0v23a1 1 0 0 0 1 1 1 1 0 0 1 0 2Z" fill="#ab8a62" opacity="1" data-original="#000000"></path></g></svg>