<svg xmlns="http://www.w3.org/2000/svg" version="1.1" xmlns:xlink="http://www.w3.org/1999/xlink" width="512" height="512" x="0" y="0" viewBox="0 0 511.934 511.934" style="enable-background:new 0 0 512 512" xml:space="preserve" class=""><g><path d="M52.499 111.366a1088.558 1088.558 0 0 0 406.9.01M57.699 170.796a1088.707 1088.707 0 0 0 396.5 0M47.309 51.936a1090.256 1090.256 0 0 0 178.21 19.75c20.06.56 40.14.57 60.21.02 20.62-.56 41.22-1.71 61.78-3.45 20.57-1.73 41.1-4.06 61.57-6.96 18.56-2.64 37.08-5.76 55.52-9.37M449.009 230.196c-16.63 3-33.3 5.6-50.02 7.81-19.12 2.54-38.3 4.56-57.5 6.07-19.22 1.52-38.47 2.52-57.73 3.02-18.75.47-37.52.47-56.27-.02-19.26-.51-38.5-1.52-57.72-3.05-19.21-1.52-38.38-3.56-57.51-6.1-16.5-2.2-32.95-4.77-49.36-7.73" style="stroke-width:15;stroke-linecap:round;stroke-linejoin:round;stroke-miterlimit:10;" fill="none" stroke="#ab8a62" stroke-width="15" stroke-linecap="round" stroke-linejoin="round" stroke-miterlimit="10" data-original="#000000" opacity="1" class=""></path><path d="m77.789 400.446-31.13-355.9c-.75-8.5-8.24-14.78-16.73-14.04l-8.33.73c-8.5.74-14.78 8.23-14.04 16.73l31.06 355.02M434.114 400.432l31.17-356.24c.74-8.49 8.23-14.78 16.73-14.04l8.32.73c8.5.75 14.78 8.24 14.04 16.73l-7.96 91.01M493.364 173.432l-20.08 229.53" style="stroke-width:15;stroke-linecap:round;stroke-linejoin:round;stroke-miterlimit:10;" fill="none" stroke="#ab8a62" stroke-width="15" stroke-linecap="round" stroke-linejoin="round" stroke-miterlimit="10" data-original="#000000" opacity="1" class=""></path><path d="M79.984 481.842h-51.06c-11.83 0-21.42-9.59-21.42-21.42v-7.97c0-29.71 24.3-54.81 54.01-54.63 14.66.08 27.92 6.04 37.55 15.64 7.64-5.43 16.97-8.64 27.05-8.64s19.41 3.21 27.05 8.64c9.7-9.67 23.09-15.64 37.88-15.64 14.78 0 28.17 5.97 37.88 15.64a46.483 46.483 0 0 1 27.04-8.64c6.88 0 13.41 1.49 19.29 4.17M393.374 405.432c7.18 1.17 13.8 3.98 19.48 8.03 9.64-9.6 22.9-15.57 37.56-15.65 29.71-.18 54.02 24.92 54.02 54.64v7.97c0 11.83-9.59 21.42-21.42 21.42h-368.03M409.079 61.296l-10.09 176.71M112.259 237.926l-10.08-176.73M347.509 68.256l-6.02 175.82M169.769 244.026l-6.02-175.83M285.729 71.706l-1.97 175.39M227.489 247.076l-1.97-175.39" style="stroke-width:15;stroke-linecap:round;stroke-linejoin:round;stroke-miterlimit:10;" fill="none" stroke="#ab8a62" stroke-width="15" stroke-linecap="round" stroke-linejoin="round" stroke-miterlimit="10" data-original="#000000" opacity="1" class=""></path><path d="M291.444 429.162c-14.35-12.01-23.48-30.05-23.48-50.23 0-36.18 29.33-65.5 65.5-65.5 7.78 0 15.24 1.36 22.16 3.84M384.134 337.432c9.27 11.3 14.83 25.75 14.83 41.5 0 18.45-7.63 35.13-19.92 47.02" style="stroke-width:15;stroke-linecap:round;stroke-linejoin:round;stroke-miterlimit:10;" fill="none" stroke="#ab8a62" stroke-width="15" stroke-linecap="round" stroke-linejoin="round" stroke-miterlimit="10" data-original="#000000" opacity="1" class=""></path><path d="M396.869 437.726a53.549 53.549 0 0 0-17.83-11.77c-6.2-2.51-12.96-3.88-20.05-3.88-10.78 0-20.82 3.18-29.22 8.65a53.603 53.603 0 0 0-8.66 7 46.49 46.49 0 0 0-27.05-8.64c-.88 0-1.76.02-2.62.08-8.7.47-16.78 3.34-23.57 7.95M462.95 438.767v-.5M475.938 456.685v-.5M455.148 457.185v-.5M203.735 427.506l.496-.061M187.557 442.607l.496-.062M184.494 422.037l.496-.061" style="stroke-width:15;stroke-linecap:round;stroke-linejoin:round;stroke-miterlimit:10;" fill="none" stroke="#ab8a62" stroke-width="15" stroke-linecap="round" stroke-linejoin="round" stroke-miterlimit="10" data-original="#000000" opacity="1" class=""></path></g></svg>