<svg xmlns="http://www.w3.org/2000/svg" version="1.1" xmlns:xlink="http://www.w3.org/1999/xlink" width="512" height="512" x="0" y="0" viewBox="0 0 64 64" style="enable-background:new 0 0 512 512" xml:space="preserve"><g><path d="M38.279 24.39a11.837 11.837 0 0 0-5.774 10.155.966.966 0 1 0 1.931 0 9.874 9.874 0 0 1 7.967-9.679.966.966 0 0 0 .768-1.129c-.378-1.815-3.946.152-4.892.653Z" fill="#ab8a62" opacity="1" data-original="#000000"></path><path d="M57.37 25.845V18.78a12.011 12.011 0 0 0-2.498-7.379.966.966 0 0 0-1.532 1.178 10.093 10.093 0 0 1 2.099 6.201v4.718a15.638 15.638 0 0 0-2.678-2.164c.288-1.793.348-4.536-1.337-6.571-1.436-1.764-3.96-2.601-7.174-2.508-6.416-.282-9.331 3.818-8.374 9.079a15.731 15.731 0 0 0-5.613 20.184 58.59 58.59 0 0 0-10.202.654v-3.197a2.9 2.9 0 0 0-2.897-2.897h-6.075a2.974 2.974 0 0 0-2.897 3.381H6.897A2.9 2.9 0 0 0 4 42.356v8.788a2.9 2.9 0 0 0 2.897 2.897h1.294a2.974 2.974 0 0 0 2.898 3.38h6.075a2.9 2.9 0 0 0 2.897-2.897v-2.897a.966.966 0 0 0-1.931 0v2.897a.967.967 0 0 1-.966.966h-6.075a.967.967 0 0 1-.966-.966V38.975a.967.967 0 0 1 .966-.966h6.075a.967.967 0 0 1 .966.966v8.663a.966.966 0 0 0 1.931 0v-3.505a54.586 54.586 0 0 1 17.076-.014v4.698a52.898 52.898 0 0 1-14.224.386.966.966 0 0 0-.198 1.922 54.304 54.304 0 0 0 14.422-.354v3.753a2.9 2.9 0 0 0 2.897 2.898h6.075a2.973 2.973 0 0 0 2.898-3.38H50.3a2.9 2.9 0 0 0 2.897-2.898v-8.788a2.9 2.9 0 0 0-2.897-2.898h-1.294a2.973 2.973 0 0 0-2.898-3.38h-6.075a2.9 2.9 0 0 0-2.897 2.897v3.183a46.537 46.537 0 0 0-4.619-.539c-8.732-15.248 12.713-29.112 23.103-14.925a13.828 13.828 0 0 1-.74 16.688.966.966 0 1 0 1.482 1.239 15.752 15.752 0 0 0 1.007-18.776ZM8.19 52.11H6.896a.967.967 0 0 1-.965-.966v-8.788a.967.967 0 0 1 .965-.965H8.19Zm30.879-13.135a.967.967 0 0 1 .965-.966h6.075a.967.967 0 0 1 .966.966v5.94a.966.966 0 0 0 1.932 0V41.39H50.3a.967.967 0 0 1 .966.966v8.788a.967.967 0 0 1-.966.966h-1.294v-3.207a.966.966 0 0 0-1.932 0v5.621a.967.967 0 0 1-.966.966h-6.075a.967.967 0 0 1-.965-.966Zm11.876-18.654a15.684 15.684 0 0 0-13.252 0c-.488-4.092 2.003-6.376 6.685-6.134 4.62-.244 7.063 2.15 6.567 6.134Z" fill="#ab8a62" opacity="1" data-original="#000000"></path><path d="M32.221 22.43a.966.966 0 0 0 .966-.966V18.78A10.22 10.22 0 0 1 43.395 8.571h1.835A10.191 10.191 0 0 1 50.444 10a.965.965 0 0 0 1.325-.336c1.122-1.98-5.233-3.147-6.538-3.025-7.417-.69-13.93 4.53-13.976 12.141v2.684a.966.966 0 0 0 .966.966Z" fill="#ab8a62" opacity="1" data-original="#000000"></path></g></svg>