<svg xmlns="http://www.w3.org/2000/svg" version="1.1" xmlns:xlink="http://www.w3.org/1999/xlink" width="512" height="512" x="0" y="0" viewBox="0 0 64 64" style="enable-background:new 0 0 512 512" xml:space="preserve" class=""><g><path d="M63.956 58.485 56.85 15.586a3.025 3.025 0 0 0-2.991-2.526h-2.774V9.295c0-4.022-3.278-7.293-7.309-7.293A7.305 7.305 0 0 0 37.47 5.63a7.31 7.31 0 0 0-6.308-3.628c-4.03 0-7.309 3.271-7.309 7.293v3.764H10.146a3.018 3.018 0 0 0-2.991 2.53L.045 58.479a2.976 2.976 0 0 0 .678 2.457 3.01 3.01 0 0 0 2.3 1.063h57.953a3.02 3.02 0 0 0 2.298-1.056 2.97 2.97 0 0 0 .682-2.457zM43.776 4.002c2.926 0 5.308 2.374 5.308 5.293v3.765h-1.571V9.295a3.736 3.736 0 0 0-7.47 0v20.368a.787.787 0 0 1-1.572 0V9.295c0-2.919 2.38-5.293 5.304-5.293zm-1.734 9.058V9.295a1.736 1.736 0 0 1 3.47 0v3.764h-3.47zM26.639 32.448a2.787 2.787 0 0 0 2.786-2.781V27.18h7.046v2.482c0 1.536 1.249 2.785 2.785 2.785s2.786-1.249 2.786-2.785V19.102h9.253l6.114 36.857H6.591l6.118-36.857h11.144v10.565a2.787 2.787 0 0 0 2.786 2.781zm9.832-11.308h-7.046v-2.038h7.046zm-7.046 2h7.046v2.042h-7.046zm7.046-6.038h-7.046V15.06h7.046zm-3.576-4.042h-3.47V9.295a1.736 1.736 0 0 1 3.47 0zm-7.042-3.765c0-2.919 2.381-5.293 5.309-5.293s5.309 2.374 5.309 5.293v3.765h-1.576V9.295a3.737 3.737 0 0 0-7.47 0v20.372c0 .43-.353.781-.786.781a.785.785 0 0 1-.786-.781V9.295zM61.758 59.64a1.014 1.014 0 0 1-.782.358H3.024a1.03 1.03 0 0 1-.78-.362.979.979 0 0 1-.228-.824l7.111-42.895c.083-.497.511-.857 1.019-.857h13.707v2.042H11.861a1 1 0 0 0-.987.836l-6.45 38.857a1 1 0 0 0 .987 1.164H58.59a.998.998 0 0 0 .986-1.164L53.13 17.938a1 1 0 0 0-.987-.836h-10.1V15.06h11.815c.506 0 .935.36 1.019.856l7.108 42.903a.978.978 0 0 1-.226.82z" fill="#ab8a62" opacity="1" data-original="#000000" class=""></path><path d="M20.91 38.723c-.985 0-1.444-.436-2.08-1.04-.746-.707-1.675-1.588-3.46-1.588a1 1 0 1 0 0 2c.987 0 1.447.436 2.084 1.04.745.708 1.674 1.588 3.456 1.588 1.786 0 2.715-.881 3.461-1.59.636-.603 1.095-1.038 2.08-1.038.986 0 1.445.435 2.08 1.039.747.708 1.676 1.589 3.462 1.589s2.715-.881 3.461-1.59c.636-.603 1.095-1.038 2.08-1.038.99 0 1.45.436 2.088 1.04.746.708 1.676 1.588 3.46 1.588 1.787 0 2.717-.881 3.464-1.59.638-.603 1.098-1.039 2.085-1.039a1 1 0 1 0 0-2c-1.784 0-2.713.88-3.46 1.587-.638.605-1.099 1.041-2.089 1.041-.987 0-1.447-.435-2.085-1.039-.747-.708-1.677-1.589-3.463-1.589-1.782 0-2.71.88-3.456 1.588-.637.604-1.097 1.04-2.085 1.04s-1.448-.436-2.085-1.04c-.745-.708-1.674-1.588-3.456-1.588s-2.711.881-3.457 1.588c-.637.604-1.097 1.04-2.085 1.04zM47.35 48.02c-.94 0-1.366-.325-1.953-.773-.69-.528-1.55-1.185-3.17-1.185-1.617 0-2.475.657-3.164 1.184-.587.45-1.011.773-1.954.773-.941 0-1.365-.324-1.952-.773-.69-.527-1.548-1.184-3.164-1.184s-2.475.657-3.164 1.184c-.587.45-1.011.773-1.953.773-.94 0-1.363-.324-1.949-.772-.69-.527-1.549-1.185-3.168-1.185-1.617 0-2.475.657-3.164 1.184-.587.45-1.011.773-1.953.773-.94 0-1.363-.324-1.949-.772-.69-.528-1.549-1.185-3.168-1.185a1 1 0 1 0 0 2c.942 0 1.366.324 1.953.774.69.527 1.548 1.183 3.164 1.183 1.62 0 2.478-.657 3.168-1.184.586-.449 1.01-.773 1.949-.773.942 0 1.366.324 1.953.773.69.528 1.548 1.184 3.164 1.184 1.62 0 2.478-.657 3.168-1.185.586-.448 1.01-.772 1.949-.772s1.362.324 1.95.772c.689.528 1.547 1.185 3.166 1.185s2.479-.657 3.168-1.185c.587-.448 1.01-.772 1.95-.772.944 0 1.369.324 1.957.773.69.528 1.548 1.184 3.167 1.184s2.477-.656 3.167-1.184c.587-.449 1.012-.773 1.957-.773a1 1 0 1 0 0-2c-1.62 0-2.48.656-3.171 1.185-.587.448-1.012.772-1.953.772z" fill="#ab8a62" opacity="1" data-original="#000000" class=""></path></g></svg>